# AST/ASF file generated using VICON BodyLanguage
# -----------------------------------------------
:version 1.10
:name VICON
:units
  mass 1.0
  length 0.45
  angle deg
:documentation
   .ast/.asf automatically generated from VICON data using
   VICON BodyBuilder and BodyLanguage model FoxedUp or BRILLIANT.MOD
:root
   order TX TY TZ RX RY RZ
   axis XYZ
   position 0 0 0  
   orientation 0 0 0 
:bonedata
  begin
     id 1 
     name lhipjoint
     direction 0.521689 -0.742065 0.420928 
     length 2.47002 
     axis 0 0 0  XYZ
  end
  begin
     id 2 
     name lfemur
     direction 0.34202 -0.939693 0  
     length 7.24654  
     axis 0 0 20  XYZ
    dof rx ry rz
    limits (-160.0 20.0)
           (-70.0 70.0)
           (-60.0 70.0)
  end
  begin
     id 3 
     name ltibia
     direction 0.34202 -0.939693 0   
     length 8.04849   
     axis 0 0 20   XYZ
    dof rx
    limits (-10.0 170.0)
  end
  begin
     id 4 
     name lfoot
     direction 0.0745411 -0.2048 0.975961   
     length 1.72367   
     axis -90 7.62852e-016 20   XYZ
    dof rx rz
    limits (-45.0 90.0)
           (-70.0 20.0)
  end
  begin
     id 5 
     name ltoes
     direction 1.53556e-011 -4.21901e-011 1   
     length 0.87311   
     axis -90 7.62852e-016 20   XYZ
    dof rx
    limits (-90.0 20.0)
  end
  begin
     id 6 
     name rhipjoint
     direction -0.52849 -0.738415 0.418857   
     length 2.48223  
     axis 0 0 0  XYZ 
  end
  begin
     id 7 
     name rfemur
     direction -0.34202 -0.939693 0   
     length 7.15571   
     axis 0 0 -20   XYZ
    dof rx ry rz
    limits (-160.0 20.0)
           (-70.0 70.0)
           (-70.0 60.0)
  end
  begin
     id 8 
     name rtibia
     direction -0.34202 -0.939693 0   
     length 7.81659   
     axis 0 0 -20   XYZ
    dof rx
    limits (-10.0 170.0)
 end
 begin
     id 9 
     name rfoot
     direction -0.0917348 -0.252039 0.963359   
     length 1.84382  
     axis -90 -7.62852e-016 -20   XYZ
    dof rx rz
    limits (-45.0 90.0)
           (-20.0 70.0)
  end
  begin
     id 10 
     name rtoes
     direction -1.53551e-011 -4.21879e-011 1   
     length 0.927771   
     axis -90 -7.62852e-016 -20   XYZ
    dof rx
    limits (-90.0 20.0)
  end
  begin
     id 11 
     name lowerback
     direction 0.00583058 0.999822 0.0179296   
     length 2.1429   
     axis 0 0 0   XYZ
    dof rx ry rz
    limits (-20.0 45.0)
           (-30.0 30.0)
           (-30.0 30.0)
  end
  begin
     id 12 
     name upperback
     direction -0.0137999 0.999752 -0.0175071   
     length 2.14252   
     axis 0 0 0   XYZ
    dof rx ry rz
    limits (-20.0 45.0)
           (-30.0 30.0)
           (-30.0 30.0)
  end
  begin
     id 13 
     name thorax
     direction -0.0158036 0.99955 -0.0254909   
     length 2.1383   
     axis 0 0 0   XYZ
    dof rx ry rz
    limits (-20.0 45.0)
           (-30.0 30.0)
           (-30.0 30.0)
  end
  begin
     id 14 
     name lowerneck
     direction -0.0101179 0.999403 -0.0330262   
     length 1.65808   
     axis 0 0 0   XYZ
    dof rx ry rz
    limits (-20.0 45.0)
           (-30.0 30.0)
           (-30.0 30.0)
  end
  begin
     id 15 
     name upperneck
     direction 0.0497734 0.995978 -0.074501   
     length 1.5897   
     axis 0 0 0   XYZ
    dof rx ry rz
    limits (-20.0 45.0)
           (-30.0 30.0)
           (-30.0 30.0)
  end
  begin
     id 16
     name head
     direction 0.0189524 0.999519 -0.0245438  
     length 1.74024  
     axis 0 0 0   XYZ
    dof rx ry rz
    limits (-20.0 45.0)
           (-30.0 30.0)
           (-30.0 30.0)
  end
  begin
     id 17 
     name lclavicle
     direction 0.945604 0.324422 0.0241537  
     length 3.59089  
     axis 0 0 0   XYZ
    dof ry rz
    limits (-20.0 10.0)
           (0.0 20.0)
  end
  begin
     id 18 
     name lhumerus
     direction 1 -4.48964e-011 -2.63524e-027   
     length 5.2391   
     axis 180 -30 -90   XYZ
    dof rx ry rz
    limits (-60.0 90.0)
           (-90.0 90.0)
           (-90.0 90.0)
  end
  begin
     id 19
     name lradius
     direction 1 -4.48969e-011 3.86978e-028   
     length 3.31467   
     axis 180 -30 -90   XYZ
    dof rx
    limits (-10.0 170.0)
  end
  begin
     id 20
     name lwrist
     direction 1 -4.48963e-011 7.20928e-028   
     length 1.65734   
     axis -5.52449e-016 90 90   XYZ
    dof ry
    limits (-180.0 0.0)
 end
  begin
     id 21 
     name lhand
     direction 1 -4.48964e-011 1.44186e-027   
     length 0.9659   
     axis -9.20027e-016 90 90   XYZ
    dof rx rz
    limits (-90.0 90.0)
           (-45.0 45.0)
  end
  begin
     id 22 
     name lfingers
     direction 1 -4.48965e-011 2.88371e-027   
     length 0.778733   
     axis -1.84005e-015 90 90   XYZ
    dof rx
    limits (0.0 90.0)
  end
  begin
     id 23
     name lthumb
     direction 0.707107 -6.34931e-011 0.707107   
     length 1.11811   
     axis -90 45 2.85299e-015   XYZ
    dof rx rz
    limits (-45.0 45.0)
           (-45.0 45.0)
  end
  begin
     id 24 
     name rclavicle
     direction -0.923762 0.370785 0.0958234   
     length 3.54196  
     axis 0 0 0   XYZ 
    dof ry rz
    limits (-10.0 20.0)
           (-20.0 0.0)
  end
  begin
     id 25 
     name rhumerus
     direction -1 -4.48966e-011 1.18702e-017  
     length 5.30252   
     axis 180 30 90   XYZ
    dof rx ry rz
    limits (-90.0 60.0)
           (-90.0 90.0)
           (-90.0 90.0)
  end
  begin
     id 26 
     name rradius
     direction -1 -4.48966e-011 4.46736e-027   
     length 3.67875   
     axis 180 30 90   XYZ
    dof rx
    limits (-10.0 170.0)
  end
  begin
     id 27 
     name rwrist
     direction -1 -4.48966e-011 7.20928e-028   
     length 1.83937   
     axis -5.52449e-016 -90 -90   XYZ
    dof ry
    limits (-180.0 0.0)
  end
  begin
     id 28
     name rhand
     direction -1 -4.48973e-011 1.44186e-027   
     length 0.594811   
     axis -9.20027e-016 -90 -90   XYZ
    dof rx rz
    limits (-90.0 90.0)
           (-45.0 45.0)
  end
  begin
     id 29
     name rfingers
     direction -1 -4.48963e-011 2.88371e-027   
     length 0.479552   
     axis -1.84005e-015 -90 -90   XYZ
    dof rx
    limits (0.0 90.0)
  end
  begin
     id 30
     name rthumb
     direction -0.707107 -6.34932e-011 0.707107   
     length 0.688544   
     axis -90 -45 -2.85299e-015   XYZ
    dof rx rz
    limits (-45.0 45.0)
           (-45.0 45.0)
  end
:hierarchy
  begin
    root lhipjoint rhipjoint lowerback
    lhipjoint lfemur
    lfemur ltibia
    ltibia lfoot
    lfoot ltoes
    rhipjoint rfemur
    rfemur rtibia
    rtibia rfoot
    rfoot rtoes
    lowerback upperback
    upperback thorax
    thorax lowerneck lclavicle rclavicle
    lowerneck upperneck
    upperneck head
    lclavicle lhumerus
    lhumerus lradius
    lradius lwrist
    lwrist lhand lthumb
    lhand lfingers
    rclavicle rhumerus
    rhumerus rradius
    rradius rwrist
    rwrist rhand rthumb
    rhand rfingers
  end

#!OML:ASF E:\acrobat2\Project_11_07_03\Capture day 1\Session 1\Acrobat.ASF
:FULLY-SPECIFIED
:DEGREES
558
root 12.9314 15.6753 18.6747 303.982 -3.7183 -1.24237
lowerback -9.28043 -1.30444 6.5798
upperback -4.14815 -2.24749 0.21661
thorax 0.627487 -1.18559 -3.68249
lowerneck -1.57272 -2.27161 -4.14529
upperneck 7.52108 -3.0255 1.5899
head 2.76573 -1.5897 1.1383
rclavicle -2.38542e-015 -7.95139e-016
rhumerus 85.8188 -39.5502 -47.883
rradius 41.3797
rwrist -16.2287
rhand -35.6783 -31.4244
rfingers 7.12502
rthumb -8.79935 -61.221
lclavicle -2.38542e-015 -7.95139e-016
lhumerus 85.3066 23.9831 40.7678
lradius 35.1276
lwrist 23.7634
lhand -43.1544 -36.7218
lfingers 7.12502
lthumb -16.007 -7.3631
rfemur 10.8577 -5.32145 9.93974
rtibia 78.4221
rfoot -32.6789 -7.13552
rtoes 11.469
lfemur 7.01136 6.92735 -2.723
ltibia 81.9863
lfoot -15.3704 -22.7655
ltoes 24.967
559
root 12.9571 15.7796 18.8066 304.506 -2.98554 -1.01139
lowerback -9.48734 -1.3751 5.72318
upperback -4.02674 -2.28438 0.0202559
thorax 0.895355 -1.18532 -3.41979
lowerneck -1.18199 -2.34445 -4.4821
upperneck 8.27032 -3.15137 1.75586
head 2.96352 -1.66862 1.25048
rclavicle 1.19271e-014 4.77083e-015
rhumerus 84.3181 -38.0983 -47.1203
rradius 41.177
rwrist -16.2499
rhand -36.1837 -30.516
rfingers 7.12502
rthumb -9.28708 -60.2915
lclavicle 1.19271e-014 4.77083e-015
lhumerus 83.7929 22.3642 39.8532
lradius 34.0698
lwrist 23.2992
lhand -42.7416 -36.2076
lfingers 7.12502
lthumb -15.6095 -6.8174
rfemur 10.9159 -5.31924 9.13484
rtibia 78.21
rfoot -32.6537 -7.10177
rtoes 11.765
lfemur 6.98222 6.47384 -4.32477
ltibia 81.5957
lfoot -15.6739 -21.9042
ltoes 24.7099
560
root 12.9811 15.8898 18.935 305.046 -2.30408 -0.802888
lowerback -9.66332 -1.44151 4.85543
upperback -3.90994 -2.30773 -0.136102
thorax 1.14436 -1.18101 -3.10647
lowerneck -0.980118 -2.41259 -4.73076
upperneck 8.95292 -3.26637 1.91246
head 3.17395 -1.73868 1.34371
rclavicle -2.54444e-014 -5.1684e-015
rhumerus 82.8593 -36.8959 -46.2435
rradius 40.9151
rwrist -16.2718
rhand -36.5962 -29.3023
rfingers 7.12502
rthumb -9.68508 -59.0597
lclavicle -2.54444e-014 -5.1684e-015
lhumerus 82.3993 20.8953 39.1085
lradius 33.1271
lwrist 22.7225
lhand -42.34 -36.0783
lfingers 7.12502
lthumb -15.2226 -6.65835
rfemur 11.0742 -5.34415 8.38343
rtibia 77.794
rfoot -32.5862 -7.09507
rtoes 11.6469
lfemur 7.04002 6.04398 -5.79775
ltibia 81.0426
lfoot -15.9974 -21.0853
ltoes 24.1451
561
root 13.0033 16.0034 19.0613 305.56 -1.78183 -0.680162
lowerback -9.74085 -1.50522 4.10693
upperback -3.77582 -2.33105 -0.216216
thorax 1.35469 -1.18015 -2.77763
lowerneck -0.961004 -2.46826 -4.83356
upperneck 9.54494 -3.35259 1.97381
head 3.38271 -1.79061 1.37945
rclavicle -2.70347e-014 -1.19271e-015
rhumerus 81.5077 -35.859 -45.4854
rradius 40.6413
rwrist -15.9658
rhand -36.9046 -27.9971
rfingers 7.12502
rthumb -9.98262 -57.7404
lclavicle -2.70347e-014 -1.19271e-015
lhumerus 81.1771 19.6413 38.4863
lradius 32.2255
lwrist 22.0247
lhand -41.9775 -36.2119
lfingers 7.12502
lthumb -14.8734 -6.76581
rfemur 11.3732 -5.37809 7.83209
rtibia 77.1754
rfoot -32.5076 -7.12004
rtoes 11.2222
lfemur 7.23689 5.64257 -6.95987
ltibia 80.3576
lfoot -16.2597 -20.4324
ltoes 23.705
562
root 13.0221 16.1213 19.1798 306.199 -1.64842 -0.801085
lowerback -9.82059 -1.53859 3.77284
upperback -3.67252 -2.35238 -0.156273
thorax 1.52176 -1.18309 -2.53547
lowerneck -1.04631 -2.50834 -4.81594
upperneck 9.96765 -3.41086 1.9924
head 3.54868 -1.82279 1.37964
rclavicle -1.82882e-014 -1.27222e-014
rhumerus 80.2843 -35.0579 -44.7537
rradius 40.2689
rwrist -15.3406
rhand -37.0358 -26.856
rfingers 7.12502
rthumb -10.1092 -56.5932
lclavicle -1.82882e-014 -1.27222e-014
lhumerus 80.1398 18.6153 37.9422
lradius 31.361
lwrist 21.2082
lhand -41.6531 -36.3768
lfingers 7.12502
lthumb -14.5609 -6.90788
rfemur 11.5843 -5.44105 7.87769
rtibia 76.3708
rfoot -32.4136 -7.23147
rtoes 10.8191
lfemur 7.35235 5.32611 -7.44369
ltibia 79.6048
lfoot -16.341 -20.039
ltoes 23.5884
563
root 13.0391 16.245 19.2929 306.917 -1.79949 -1.09261
lowerback -9.876 -1.54223 3.7663
upperback -3.58724 -2.36503 -0.0103026
thorax 1.64664 -1.18479 -2.38589
lowerneck -1.21727 -2.53658 -4.7085
upperneck 10.2357 -3.44951 2.00328
head 3.67435 -1.83921 1.36114
rclavicle 1.51076e-014 -2.78299e-015
rhumerus 79.1642 -34.4409 -44.1921
rradius 39.8746
rwrist -14.2674
rhand -36.9421 -25.98
rfingers 7.12502
rthumb -10.0188 -55.7215
lclavicle 1.51076e-014 -2.78299e-015
lhumerus 79.305 17.8217 37.4646
lradius 30.5338
lwrist 20.2813
lhand -41.3367 -36.5288
lfingers 7.12502
lthumb -14.2561 -7.03816
rfemur 11.774 -5.52677 8.31815
rtibia 75.3978
rfoot -32.3261 -7.36435
rtoes 10.4301
lfemur 7.45145 5.08711 -7.43163
ltibia 78.7745
lfoot -16.2695 -19.8631
ltoes 23.8264
564
root 13.0555 16.3741 19.4023 307.682 -2.21724 -1.55728
lowerback -9.88811 -1.52152 4.10085
upperback -3.51756 -2.37749 0.211699
thorax 1.71978 -1.1889 -2.34684
lowerneck -1.44353 -2.54872 -4.58379
upperneck 10.3755 -3.46806 2.06953
head 3.76634 -1.84049 1.35835
rclavicle -2.3059e-014 -5.96354e-015
rhumerus 78.197 -33.9867 -43.8258
rradius 39.4357
rwrist -12.8242
rhand -36.5583 -25.4271
rfingers 7.12502
rthumb -9.64848 -55.1862
lclavicle -2.3059e-014 -5.96354e-015
lhumerus 78.6312 17.2707 37.041
lradius 29.7826
lwrist 19.3066
lhand -40.9608 -36.5213
lfingers 7.12502
lthumb -13.8939 -7.00546
rfemur 11.9785 -5.62789 9.11287
rtibia 74.2688
rfoot -32.2478 -7.4998
rtoes 10.0134
lfemur 7.57055 4.91886 -6.96151
ltibia 77.8738
lfoot -16.0583 -19.8744
ltoes 24.3798
565
root 13.0712 16.5079 19.506 308.528 -2.71363 -2.05567
lowerback -9.87172 -1.49381 4.53593
upperback -3.4898 -2.38835 0.450175
thorax 1.72992 -1.19436 -2.34471
lowerneck -1.65442 -2.55133 -4.50672
upperneck 10.3764 -3.48006 2.23415
head 3.81036 -1.83478 1.39754
rclavicle -1.11319e-014 1.31198e-014
rhumerus 77.4037 -33.6488 -43.6695
rradius 38.9513
rwrist -11.1397
rhand -35.9871 -25.0344
rfingers 7.12502
rthumb -9.09734 -54.8182
lclavicle -1.11319e-014 1.31198e-014
lhumerus 78.0903 16.9467 36.7171
lradius 29.1359
lwrist 18.3033
lhand -40.4896 -36.3564
lfingers 7.12502
lthumb -13.4398 -6.80998
rfemur 12.1305 -5.75697 9.96613
rtibia 73.0426
rfoot -32.1571 -7.59284
rtoes 9.45647
lfemur 7.64176 4.83848 -6.34059
ltibia 76.9038
lfoot -15.7388 -19.9347
ltoes 24.9521
566
root 13.0877 16.6481 19.6052 309.483 -3.16569 -2.54395
lowerback -9.94091 -1.46554 4.97999
upperback -3.49183 -2.40222 0.655646
thorax 1.75377 -1.20143 -2.38421
lowerneck -1.87116 -2.5501 -4.49838
upperneck 10.2988 -3.49403 2.5222
head 3.8335 -1.82681 1.49052
rclavicle 9.54166e-015 -4.77083e-015
rhumerus 76.7852 -33.4403 -43.6686
rradius 38.4095
rwrist -9.42079
rhand -35.3066 -24.7601
rfingers 7.12502
rthumb -8.4407 -54.5714
lclavicle 9.54166e-015 -4.77083e-015
lhumerus 77.6939 16.8291 36.5213
lradius 28.5988
lwrist 17.2692
lhand -39.9699 -36.0259
lfingers 7.12502
lthumb -12.9388 -6.44707
rfemur 12.2076 -5.95138 10.7006
rtibia 71.7465
rfoot -32.0434 -7.57261
rtoes 8.83085
lfemur 7.62643 4.81218 -5.76633
ltibia 75.8585
lfoot -15.3721 -19.9193
ltoes 25.2169
567
root 13.1039 16.7928 19.6987 310.517 -3.39006 -2.83967
lowerback -10.0264 -1.45726 5.13655
upperback -3.54842 -2.41268 0.781742
thorax 1.73952 -1.20791 -2.34398
lowerneck -2.03745 -2.53984 -4.53714
upperneck 10.1342 -3.49936 2.86958
head 3.81893 -1.81363 1.61291
rclavicle 1.90833e-014 -1.19271e-015
rhumerus 76.3497 -33.3251 -43.7342
rradius 37.7869
rwrist -7.89038
rhand -34.604 -24.542
rfingers 7.12502
rthumb -7.76253 -54.3795
lclavicle 1.90833e-014 -1.19271e-015
lhumerus 77.3746 16.8955 36.3807
lradius 28.1576
lwrist 16.2449
lhand -39.4239 -35.553
lfingers 7.12502
lthumb -12.4123 -5.94157
rfemur 12.2139 -6.20528 11.0075
rtibia 70.438
rfoot -31.9104 -7.405
rtoes 8.13859
lfemur 7.52441 4.84776 -5.55758
ltibia 74.7364
lfoot -14.9837 -19.7446
ltoes 25.07
